#N canvas 674 23 554 646 10;
#X obj 261 442 osc~;
#X obj 261 344 mtof;
#X obj 238 515 dac~;
#X obj 243 479 *~ 1;
#X floatatom 261 385 5 0 0 0 - - -;
#X obj 317 473 r \$0-volume;
#X obj 251 70 metro;
#X obj 252 112 f;
#X obj 316 114 + 1;
#X obj 252 139 mod 2;
#X obj 252 170 hradio 15 1 0 2 empty empty empty 0 -8 0 10 -262144
-1 -1 1;
#X floatatom 234 302 5 0 0 0 - - -;
#X obj 246 268 sel 0 1;
#X floatatom 241 209 5 0 0 0 - - -;
#X floatatom 277 303 5 0 0 0 - - -;
#X obj 225 17 r \$0-metro;
#X connect 0 0 3 0;
#X connect 1 0 4 0;
#X connect 3 0 2 0;
#X connect 3 0 2 1;
#X connect 4 0 0 0;
#X connect 5 0 3 1;
#X connect 6 0 7 0;
#X connect 7 0 9 0;
#X connect 7 0 8 0;
#X connect 8 0 7 1;
#X connect 9 0 10 0;
#X connect 10 0 13 0;
#X connect 11 0 1 0;
#X connect 12 0 11 0;
#X connect 12 1 14 0;
#X connect 13 0 12 0;
#X connect 14 0 1 0;
#X connect 15 0 6 0;
