#N canvas 570 30 554 646 10;
#X obj 311 517 osc~;
#X obj 311 419 mtof;
#X obj 288 590 dac~;
#X obj 293 554 *~ 1;
#X floatatom 311 460 5 0 0 0 - - -, f 5;
#X obj 410 443 r \$0-volume;
#X obj 302 187 f;
#X obj 366 189 + 1;
#X obj 302 214 mod 2;
#X obj 302 245 hradio 15 1 0 2 empty empty empty 0 -8 0 10 -262144
-1 -1 0;
#X obj 296 343 sel 0 1;
#X floatatom 291 284 5 0 0 0 - - -, f 5;
#X obj 350 24 r \$0-metro;
#X floatatom 382 580 5 0 0 0 - - -, f 5;
#X msg 336 380 67;
#X msg 264 381 60;
#X msg 67 22 0;
#X obj 170 16 loadbang;
#X obj 280 71 t b b;
#X obj 265 23 bng 15 250 50 0 empty empty empty 17 7 0 10 -262144 -1
-1;
#X obj 337 106 * 300;
#X obj 301 145 metro 0 300 permin;
#X obj 399 513 * 100;
#X connect 0 0 3 0;
#X connect 1 0 4 0;
#X connect 3 0 2 0;
#X connect 3 0 2 1;
#X connect 4 0 0 0;
#X connect 5 0 22 0;
#X connect 6 0 8 0;
#X connect 6 0 7 0;
#X connect 7 0 6 1;
#X connect 8 0 9 0;
#X connect 9 0 11 0;
#X connect 10 0 15 0;
#X connect 10 1 14 0;
#X connect 11 0 10 0;
#X connect 12 0 20 0;
#X connect 12 0 18 0;
#X connect 14 0 1 0;
#X connect 15 0 1 0;
#X connect 16 0 0 0;
#X connect 16 0 21 0;
#X connect 17 0 18 0;
#X connect 18 0 21 0;
#X connect 18 1 20 0;
#X connect 19 0 18 0;
#X connect 20 0 21 1;
#X connect 21 0 6 0;
#X connect 22 0 3 1;
#X connect 22 0 13 0;
