#N canvas 3 60 680 657 10;
#X obj 0 131 bng 15 250 50 0 empty empty empty 17 7 0 10 -262144 -1
-1;
#X obj 77 130 bng 15 250 50 0 empty empty empty 17 7 0 10 -262144 -1
-1;
#X obj 166 131 bng 15 250 50 0 empty empty empty 17 7 0 10 -262144
-1 -1;
#X obj 265 132 bng 15 250 50 0 empty empty empty 17 7 0 10 -262144
-1 -1;
#X obj 368 133 bng 15 250 50 0 empty empty empty 17 7 0 10 -262144
-1 -1;
#X obj 458 130 bng 15 250 50 0 empty empty empty 17 7 0 10 -262144
-1 -1;
#X obj 523 127 bng 15 250 50 0 empty empty empty 17 7 0 10 -262144
-1 -1;
#X obj 593 129 bng 15 250 50 0 empty empty empty 17 7 0 10 -262144
-1 -1;
#X obj 0 101 r volume;
#X obj 77 101 r tempo_in;
#X obj 166 101 r MIDI_pitch;
#X obj 265 101 r MIDI_vel;
#X obj 353 101 r progression;
#X obj 458 101 r play;
#X obj 523 101 r pause;
#X obj 593 101 r stop;
#X obj 301 305 s tempo_out;
#X obj 301 222 mainMessageHandler;
#X obj 96 16 loadbang;
#X msg 96 129 0;
#X msg 19 129 1;
#X connect 8 0 0 0;
#X connect 8 0 17 0;
#X connect 9 0 1 0;
#X connect 9 0 17 1;
#X connect 10 0 2 0;
#X connect 10 0 17 2;
#X connect 11 0 3 0;
#X connect 11 0 17 3;
#X connect 12 0 4 0;
#X connect 12 0 17 4;
#X connect 13 0 5 0;
#X connect 13 0 17 5;
#X connect 14 0 6 0;
#X connect 14 0 17 6;
#X connect 15 0 7 0;
#X connect 15 0 17 7;
#X connect 17 0 16 0;
#X connect 18 0 19 0;
#X connect 18 0 20 0;
#X connect 19 0 17 1;
#X connect 20 0 17 0;
