#N canvas 3 60 450 300 10;
#X obj -2299 -2281 hip~ 5;
#X obj -2298 -2335 *~;
#X obj -2299 -2306 +~;
#X obj -2183 -2335 *~;
#X floatatom -2221 -2477 5 0 0 0 - - -, f 5;
#X obj -2298 -2359 tabread4~ sample;
#X obj -2183 -2359 tabread4~ sample;
#X obj -2221 -2452 pitchShift;
#X connect 1 0 2 0;
#X connect 2 0 0 0;
#X connect 3 0 2 1;
#X connect 4 0 7 0;
#X connect 5 0 1 0;
#X connect 6 0 3 0;
#X connect 7 0 5 0;
#X connect 7 1 1 1;
#X connect 7 2 6 0;
#X connect 7 3 3 1;
