#N canvas 848 290 306 456 10;
#X obj 91 187 list trim;
#X obj 91 167 list prepend open;
#X obj 91 127 list;
#X obj 91 208 t b a;
#X msg 91 228 1;
#X msg 91 147 \$3/\$1_\$2.wav;
#X obj 64 34 inlet;
#X obj 91 377 outlet~;
#X obj 91 248 readsf~ 2 1e+06;
#X obj 134 377 outlet~;
#X obj 10 89 unpack f f;
#X obj 64 56 t a a;
#X obj 67 290 adsr~;
#X obj 91 353 *~;
#X obj 119 353 *~;
#X obj 44 126 sel 0;
#X msg 45 182 0;
#X obj 112 37 inlet SAMPLEPACK;
#X obj 217 36 inlet ADSR;
#X obj 68 320 sqrt~;
#X obj 200 262 sel 0 1;
#X msg 189 289 0;
#X msg 222 289 1;
#X obj 187 318 t f f;
#X obj 231 319 t f f;
#X obj 237 370 switch~;
#X obj 195 376 line~;
#X msg 194 356 \$1 5;
#X obj 232 342 pipe 5;
#X connect 0 0 3 0;
#X connect 1 0 0 0;
#X connect 2 0 5 0;
#X connect 3 0 4 0;
#X connect 3 1 8 0;
#X connect 4 0 8 0;
#X connect 5 0 1 0;
#X connect 6 0 11 0;
#X connect 8 0 13 0;
#X connect 8 1 14 1;
#X connect 10 1 15 0;
#X connect 11 0 10 0;
#X connect 11 1 2 0;
#X connect 12 0 19 0;
#X connect 12 1 20 0;
#X connect 13 0 7 0;
#X connect 14 0 9 0;
#X connect 15 0 16 0;
#X connect 15 1 12 0;
#X connect 16 0 8 0;
#X connect 16 0 12 0;
#X connect 17 0 2 1;
#X connect 18 0 12 1;
#X connect 19 0 14 0;
#X connect 19 0 13 1;
#X connect 20 0 21 0;
#X connect 20 1 22 0;
#X connect 21 0 23 0;
#X connect 22 0 24 0;
#X connect 23 0 28 0;
#X connect 23 1 27 0;
#X connect 24 0 27 0;
#X connect 24 1 25 0;
#X connect 26 0 14 1;
#X connect 26 0 13 1;
#X connect 27 0 26 0;
#X connect 28 0 25 0;
