#N canvas 474 23 1039 929 10;
#X obj 415 809 outlet~;
#X obj 472 809 outlet~;
#X obj -108 642 osc~;
#X obj -108 614 mtof;
#X msg 251 440 \; pd dsp 1 \;;
#X msg 224 475 \; pd dsp 0 \;;
#X obj 110 43 inlet;
#X obj 197 274 adsr~;
#X obj 224 416 sel 0;
#X text -18 19 List: channel (instrument) \, MIDI number \, velocity
\, A \, D \, S \, R \, kill;
#X msg 351 189 \$2;
#X msg 382 189 \$1;
#X msg 168 189 \$8;
#X obj 227 217 pack f f f f;
#X msg 318 189 \$7;
#X msg 287 189 \$6;
#X msg 257 189 \$5;
#X msg 227 189 \$4;
#X obj -108 675 *~;
#X obj -81 675 *~;
#X floatatom -108 588 5 0 0 0 - - -;
#X obj 504 269 float;
#X text 509 288 Instruments;
#X obj 504 307 route 1 2;
#X msg 589 363 LesPaul.SF2;
#X msg 504 363 piano_1.sf2;
#X obj 504 392 symbol;
#X text 567 404 replace with the path to your soundfont folder:;
#X obj 504 426 makefilename /Users/comp150/Desktop/pd-for-libpd/Pd-for-LibPd/soundfonts/%s
;
#X obj 504 341 bng 15 250 50 0 empty empty empty 17 7 0 10 -262144
-1 -1;
#X obj 589 341 bng 15 250 50 0 empty empty empty 17 7 0 10 -262144
-1 -1;
#X msg 351 601 volume \$1;
#X obj 415 552 pack f f;
#X obj 415 525 float;
#X obj 460 525 float;
#X text -205 565 Temporary \, without soundfonts.;
#X obj 415 643 soundfonts;
#X msg 351 576 127;
#X text 165 581 Max. Volume by Default.;
#X text 140 598 Control volume at the root level.;
#X obj 470 223 t b b b b;
#X obj 155 131 t b l l l l l l l l;
#X obj 168 217 sel 1;
#X msg 168 243 kill;
#X msg 198 189 \$3;
#X obj -89 122 loadbang;
#X obj 31 99 route -1;
#X text 175 98 Route soundfont paths from note messages.;
#X obj 31 75 list trim;
#X obj 507 525 list trim;
#X obj 597 44 r sf_path2;
#X connect 2 0 18 0;
#X connect 2 0 19 0;
#X connect 3 0 2 0;
#X connect 6 0 41 0;
#X connect 7 0 19 1;
#X connect 7 0 18 1;
#X connect 7 1 8 0;
#X connect 8 0 5 0;
#X connect 8 1 4 0;
#X connect 10 0 20 0;
#X connect 10 0 33 1;
#X connect 11 0 21 1;
#X connect 12 0 42 0;
#X connect 13 0 7 1;
#X connect 14 0 13 3;
#X connect 15 0 13 2;
#X connect 16 0 13 1;
#X connect 17 0 13 0;
#X connect 20 0 3 0;
#X connect 21 0 23 0;
#X connect 23 0 29 0;
#X connect 23 1 30 0;
#X connect 24 0 26 0;
#X connect 25 0 26 0;
#X connect 26 0 28 0;
#X connect 29 0 25 0;
#X connect 30 0 24 0;
#X connect 31 0 36 0;
#X connect 32 0 36 0;
#X connect 33 0 32 0;
#X connect 34 0 32 1;
#X connect 36 0 0 0;
#X connect 36 1 1 0;
#X connect 37 0 31 0;
#X connect 40 0 33 0;
#X connect 40 1 34 0;
#X connect 40 2 21 0;
#X connect 40 3 37 0;
#X connect 41 0 40 0;
#X connect 41 1 12 0;
#X connect 41 2 44 0;
#X connect 41 3 17 0;
#X connect 41 4 16 0;
#X connect 41 5 15 0;
#X connect 41 6 14 0;
#X connect 41 7 10 0;
#X connect 41 8 11 0;
#X connect 42 0 43 0;
#X connect 43 0 7 0;
#X connect 44 0 7 0;
#X connect 44 0 34 1;
#X connect 45 0 5 0;
#X connect 48 0 46 0;
#X connect 49 0 36 0;
#X connect 50 0 49 0;
