#N canvas 329 23 1039 929 10;
#X obj 415 809 outlet~;
#X obj 472 809 outlet~;
#X obj -108 642 osc~;
#X obj -108 614 mtof;
#X msg 251 440 \; pd dsp 1 \;;
#X msg 224 475 \; pd dsp 0 \;;
#X obj 155 43 inlet;
#X obj 197 274 adsr~;
#X obj 224 416 sel 0;
#X msg 351 189 \$2;
#X msg 168 189 \$8;
#X obj 227 217 pack f f f f;
#X msg 318 189 \$7;
#X msg 287 189 \$6;
#X msg 257 189 \$5;
#X msg 227 189 \$4;
#X obj -108 675 *~;
#X obj -81 675 *~;
#X floatatom -108 588 5 0 0 0 - - -;
#X msg 351 601 volume \$1;
#X obj 415 552 pack f f;
#X obj 415 525 float;
#X obj 460 525 float;
#X text -205 565 Temporary \, without soundfonts.;
#X obj 415 643 soundfonts;
#X text 165 581 Max. Volume by Default.;
#X text 140 598 Control volume at the root level.;
#X obj 168 217 sel 1;
#X msg 168 243 kill;
#X msg 198 189 \$3;
#X obj -89 122 loadbang;
#X text 175 98 Route soundfont paths from note messages.;
#X obj 507 525 list trim;
#X msg 351 576 1;
#X obj 540 114 list prepend set;
#X obj 540 86 list;
#X obj 470 217 t b b b;
#X text 27 19 List: Full soundfont path \, MIDI number \, velocity
\, A \, D \, S \, R \, kill;
#X obj 668 175 t a a a a a a a a;
#X obj 155 131 t b a a a a a a a a;
#X msg 673 250 set \$1;
#X obj 155 76 list;
#X msg 382 189 set \$1;
#X msg 540 44 /Users/comp150/Desktop/pd-for-libpd/Pd-for-LibPd/soundfonts/piano_1.sf2
;
#X obj 492 583 print NOTE;
#X connect 2 0 16 0;
#X connect 2 0 17 0;
#X connect 3 0 2 0;
#X connect 6 0 41 0;
#X connect 7 0 17 1;
#X connect 7 0 16 1;
#X connect 7 1 8 0;
#X connect 8 0 5 0;
#X connect 8 1 4 0;
#X connect 9 0 18 0;
#X connect 9 0 21 1;
#X connect 10 0 27 0;
#X connect 11 0 7 1;
#X connect 12 0 11 3;
#X connect 13 0 11 2;
#X connect 14 0 11 1;
#X connect 15 0 11 0;
#X connect 18 0 3 0;
#X connect 19 0 24 0;
#X connect 20 0 24 0;
#X connect 20 0 44 0;
#X connect 21 0 20 0;
#X connect 22 0 20 1;
#X connect 24 0 0 0;
#X connect 24 1 1 0;
#X connect 27 0 28 0;
#X connect 28 0 7 0;
#X connect 29 0 7 0;
#X connect 29 0 22 1;
#X connect 30 0 5 0;
#X connect 32 0 24 0;
#X connect 33 0 19 0;
#X connect 34 0 38 0;
#X connect 35 0 34 0;
#X connect 36 0 21 0;
#X connect 36 1 22 0;
#X connect 36 2 33 0;
#X connect 38 7 40 0;
#X connect 39 0 36 0;
#X connect 39 1 10 0;
#X connect 39 2 29 0;
#X connect 39 3 15 0;
#X connect 39 4 14 0;
#X connect 39 5 13 0;
#X connect 39 6 12 0;
#X connect 39 7 9 0;
#X connect 39 8 42 0;
#X connect 41 0 39 0;
#X connect 42 0 24 0;
#X connect 43 0 35 0;
