#N canvas 623 23 1039 929 10;
#X obj 645 869 outlet~;
#X obj 702 869 outlet~;
#X msg 252 440 \; pd dsp 1 \;;
#X msg 225 475 \; pd dsp 0 \;;
#X obj 155 43 inlet;
#X obj 198 274 adsr~;
#X obj 225 416 sel 0;
#X msg 351 189 \$2;
#X obj 227 217 pack f f f f;
#X msg 318 189 \$7;
#X msg 287 189 \$6;
#X msg 257 189 \$5;
#X msg 227 189 \$4;
#X msg 581 601 volume \$1;
#X obj 645 552 pack f f;
#X obj 645 525 float;
#X obj 690 525 float;
#X obj 645 643 soundfonts;
#X text 395 581 Max. Volume by Default.;
#X text 370 598 Control volume at the root level.;
#X obj 98 217 sel 1;
#X msg 98 243 kill;
#X msg 198 189 \$3;
#X obj -89 122 loadbang;
#X text 168 103 Route soundfont paths from note messages.;
#X obj 737 525 list trim;
#X msg 581 576 1;
#X obj 540 114 list prepend set;
#X obj 540 86 list;
#X obj 490 217 t b b b;
#X obj 540 140 t a a a a a a a a;
#X msg 639 171 set \$1;
#X obj 155 76 list;
#X msg 540 44 /Users/comp150/Desktop/pd-for-libpd/Pd-for-LibPd/soundfonts/piano_1.sf2
;
#X text 544 23 For testing \, debugging.;
#X msg 428 272 set \$1;
#X msg 383 188 \$1;
#X obj 383 215 symbol;
#X obj 383 243 sel NONE;
#X text 311 736 Vibrato LFO:;
#X text 392 758 0 - 127;
#X text 427 778 0 - 127;
#X text 466 789 0 - 127;
#X msg 334 799 vib_lfo_frequency \$1;
#X text 176 722 0 - 127;
#X msg 135 803 reverb_width \$1;
#X obj 72 622 r reverb;
#X obj 281 684 r vibrato;
#X msg 119 783 reverb_size \$2;
#X msg 103 763 reverb_level \$3;
#X msg 87 743 reverb_damping \$4;
#X msg 72 723 reverb_amount \$5;
#X obj 72 654 t l l l l l;
#X obj 734 597 r \$0-sf_effects;
#X obj 72 840 s \$0-sf_effects;
#X obj 281 838 s \$0-sf_effects;
#X obj 281 716 t l l l;
#X msg 308 779 vib_lfo_delay \$2;
#X msg 281 759 vib_lfo_amount \$3;
#X obj 155 131 t b a a a a a a a a a a;
#X obj 645 779 *~;
#X obj 702 779 *~;
#X text 31 8 List: Full soundfont path \, MIDI number \, velocity \,
A \, D \, S \, R \, vibrato \, reverb \, kill;
#X msg 166 189 \$8;
#X msg 98 189 \$10;
#X msg 133 189 \$9;
#X obj 242 657 list;
#X obj 29 594 list;
#X msg 242 631 \$1 0.2 0.5;
#X msg 29 568 3 3 3 1 \$1;
#X connect 4 0 32 0;
#X connect 5 0 60 1;
#X connect 5 0 61 1;
#X connect 5 1 6 0;
#X connect 6 0 3 0;
#X connect 6 1 2 0;
#X connect 7 0 15 1;
#X connect 8 0 5 1;
#X connect 9 0 8 3;
#X connect 10 0 8 2;
#X connect 11 0 8 1;
#X connect 12 0 8 0;
#X connect 13 0 17 0;
#X connect 14 0 17 0;
#X connect 15 0 14 0;
#X connect 16 0 14 1;
#X connect 17 0 60 0;
#X connect 17 1 61 0;
#X connect 20 0 21 0;
#X connect 21 0 5 0;
#X connect 22 0 5 0;
#X connect 22 0 16 1;
#X connect 23 0 3 0;
#X connect 25 0 17 0;
#X connect 26 0 13 0;
#X connect 27 0 30 0;
#X connect 28 0 27 0;
#X connect 29 0 15 0;
#X connect 29 1 16 0;
#X connect 29 2 26 0;
#X connect 30 7 31 0;
#X connect 31 0 25 0;
#X connect 32 0 59 0;
#X connect 33 0 28 0;
#X connect 35 0 17 0;
#X connect 36 0 37 0;
#X connect 37 0 38 0;
#X connect 38 1 35 0;
#X connect 43 0 55 0;
#X connect 45 0 54 0;
#X connect 46 0 52 0;
#X connect 47 0 56 0;
#X connect 48 0 54 0;
#X connect 49 0 54 0;
#X connect 50 0 54 0;
#X connect 51 0 54 0;
#X connect 52 0 51 0;
#X connect 52 1 50 0;
#X connect 52 2 49 0;
#X connect 52 3 48 0;
#X connect 52 4 45 0;
#X connect 53 0 17 0;
#X connect 56 0 58 0;
#X connect 56 1 57 0;
#X connect 56 2 43 0;
#X connect 57 0 55 0;
#X connect 58 0 55 0;
#X connect 59 0 29 0;
#X connect 59 1 64 0;
#X connect 59 2 65 0;
#X connect 59 3 63 0;
#X connect 59 4 22 0;
#X connect 59 5 12 0;
#X connect 59 6 11 0;
#X connect 59 7 10 0;
#X connect 59 8 9 0;
#X connect 59 9 7 0;
#X connect 59 10 36 0;
#X connect 60 0 0 0;
#X connect 61 0 1 0;
#X connect 63 0 68 0;
#X connect 64 0 20 0;
#X connect 65 0 69 0;
#X connect 66 0 56 0;
#X connect 67 0 52 0;
#X connect 68 0 66 0;
#X connect 69 0 67 0;
