#N canvas 315 23 1039 929 10;
#X obj 415 809 outlet~;
#X obj 472 809 outlet~;
#X msg 252 440 \; pd dsp 1 \;;
#X msg 225 475 \; pd dsp 0 \;;
#X obj 155 43 inlet;
#X obj 198 274 adsr~;
#X obj 225 416 sel 0;
#X msg 351 189 \$2;
#X msg 168 189 \$8;
#X obj 227 217 pack f f f f;
#X msg 318 189 \$7;
#X msg 287 189 \$6;
#X msg 257 189 \$5;
#X msg 227 189 \$4;
#X obj 415 552 pack f f;
#X obj 415 525 float;
#X obj 460 525 float;
#X text 165 581 Max. Volume by Default.;
#X text 140 598 Control volume at the root level.;
#X obj 168 217 sel 1;
#X msg 168 243 kill;
#X msg 198 189 \$3;
#X obj -89 122 loadbang;
#X text 168 103 Route soundfont paths from note messages.;
#X obj 507 525 list trim;
#X msg 351 576 1;
#X obj 540 114 list prepend set;
#X obj 540 86 list;
#X obj 490 217 t b b b;
#X text 27 19 List: Full soundfont path \, MIDI number \, velocity
\, A \, D \, S \, R \, kill;
#X obj 540 140 t a a a a a a a a;
#X obj 155 131 t b a a a a a a a a;
#X msg 639 171 set \$1;
#X obj 155 76 list;
#X msg 540 44 /Users/comp150/Desktop/pd-for-libpd/Pd-for-LibPd/soundfonts/piano_1.sf2
;
#X text 544 23 For testing \, debugging.;
#X msg 428 272 set \$1;
#X msg 383 188 \$1;
#X obj 383 215 symbol;
#X obj 383 243 sel NONE;
#X obj 415 643 autosampler~;
#X obj 395 717 *~;
#X obj 439 710 *~;
#X obj 343 667 line~;
#X msg 345 638 \$1 5;
#X connect 4 0 33 0;
#X connect 5 1 6 0;
#X connect 6 0 3 0;
#X connect 6 1 2 0;
#X connect 7 0 15 1;
#X connect 8 0 19 0;
#X connect 9 0 5 1;
#X connect 10 0 9 3;
#X connect 11 0 9 2;
#X connect 12 0 9 1;
#X connect 13 0 9 0;
#X connect 14 0 40 0;
#X connect 15 0 14 0;
#X connect 16 0 14 1;
#X connect 19 0 20 0;
#X connect 20 0 5 0;
#X connect 21 0 5 0;
#X connect 21 0 16 1;
#X connect 22 0 3 0;
#X connect 24 0 40 0;
#X connect 25 0 44 0;
#X connect 26 0 30 0;
#X connect 27 0 26 0;
#X connect 28 0 15 0;
#X connect 28 1 16 0;
#X connect 28 2 25 0;
#X connect 30 7 32 0;
#X connect 31 0 28 0;
#X connect 31 1 8 0;
#X connect 31 2 21 0;
#X connect 31 3 13 0;
#X connect 31 4 12 0;
#X connect 31 5 11 0;
#X connect 31 6 10 0;
#X connect 31 7 7 0;
#X connect 31 8 37 0;
#X connect 32 0 24 0;
#X connect 33 0 31 0;
#X connect 34 0 27 0;
#X connect 36 0 40 0;
#X connect 37 0 38 0;
#X connect 38 0 39 0;
#X connect 39 1 36 0;
#X connect 40 0 41 1;
#X connect 40 1 42 1;
#X connect 41 0 0 0;
#X connect 42 0 1 0;
#X connect 43 0 41 0;
#X connect 43 0 42 0;
#X connect 44 0 43 0;
