#N canvas 258 47 693 911 10;
#X obj 56 26 inlet;
#X msg -14 706 reset;
#X msg -14 730 view;
#X text 98 25 Channel \, MIDI-num \, velocity;
#X obj 34 752 channels~;
#X obj 34 829 outlet~;
#X obj 85 829 outlet~;
#X obj 101 791 view~;
#X text 30 43 Each channel is a different instrument.;
#X text 353 69 OPEN A BUNCH OF CHANNELS TO START.;
#X text 352 86 THEN LEAVE THEM OPEN THE WHOLE TIME.;
#X msg -74 88 1 1 65 127 600 1000 0.1 3000 0;
#X obj 178 105 t b b b b b b b b b b b b b b b b b b b b;
#X obj 432 35 loadbang;
#X obj 34 706 r \$0-chanIn;
#X obj 421 602 s \$0-chanIn;
#X obj 56 174 s \$0-chanIn;
#X msg 421 133 init 1 stereo instrument_v02;
#X msg 411 154 init 2 stereo instrument_v02;
#X msg 401 175 init 3 stereo instrument_v02;
#X msg 391 196 init 4 stereo instrument_v02;
#X msg 381 217 init 5 stereo instrument_v02;
#X msg 371 238 init 6 stereo instrument_v02;
#X msg 361 259 init 7 stereo instrument_v02;
#X msg 351 280 init 8 stereo instrument_v02;
#X msg 341 301 init 9 stereo instrument_v02;
#X msg 331 322 init 10 stereo instrument_v02;
#X msg 321 343 init 11 stereo instrument_v02;
#X msg 311 364 init 12 stereo instrument_v02;
#X msg 301 385 init 13 stereo instrument_v02;
#X msg 291 406 init 14 stereo instrument_v02;
#X msg 281 427 init 15 stereo instrument_v02;
#X msg 271 448 init 16 stereo instrument_v02;
#X msg 261 469 init 17 stereo instrument_v02;
#X msg 251 490 init 18 stereo instrument_v02;
#X msg 241 511 init 19 stereo instrument_v02;
#X msg 231 532 init 20 stereo instrument_v02;
#X connect 0 0 16 0;
#X connect 1 0 4 0;
#X connect 2 0 4 0;
#X connect 4 0 5 0;
#X connect 4 0 7 0;
#X connect 4 1 6 0;
#X connect 11 0 16 0;
#X connect 12 0 36 0;
#X connect 12 1 35 0;
#X connect 12 2 34 0;
#X connect 12 3 33 0;
#X connect 12 4 32 0;
#X connect 12 5 31 0;
#X connect 12 6 30 0;
#X connect 12 7 29 0;
#X connect 12 8 28 0;
#X connect 12 9 27 0;
#X connect 12 10 26 0;
#X connect 12 11 25 0;
#X connect 12 12 24 0;
#X connect 12 13 23 0;
#X connect 12 14 22 0;
#X connect 12 15 21 0;
#X connect 12 16 20 0;
#X connect 12 17 19 0;
#X connect 12 18 18 0;
#X connect 12 19 17 0;
#X connect 13 0 12 0;
#X connect 14 0 4 0;
#X connect 17 0 15 0;
#X connect 18 0 15 0;
#X connect 19 0 15 0;
#X connect 20 0 15 0;
#X connect 21 0 15 0;
#X connect 22 0 15 0;
#X connect 23 0 15 0;
#X connect 24 0 15 0;
#X connect 25 0 15 0;
#X connect 26 0 15 0;
#X connect 27 0 15 0;
#X connect 28 0 15 0;
#X connect 29 0 15 0;
#X connect 30 0 15 0;
#X connect 31 0 15 0;
#X connect 32 0 15 0;
#X connect 33 0 15 0;
#X connect 34 0 15 0;
#X connect 35 0 15 0;
#X connect 36 0 15 0;
