#N canvas 38 59 633 464 10;
#X obj 376 57 inlet;
#X msg 348 241 reset;
#X msg 348 265 view;
#X obj 396 287 channels~;
#X obj 396 364 outlet~;
#X obj 447 364 outlet~;
#X obj 463 326 view~;
#X text 375 35 Each channel is a different instrument.;
#X text 5 86 OPEN A BUNCH OF CHANNELS TO START.;
#X text 4 103 THEN LEAVE THEM OPEN THE WHOLE TIME.;
#X obj 396 241 r \$0-chanIn;
#X obj 376 156 s \$0-chanIn;
#X text 4 120 ONE FOR EACH INSTRUMENT USED IN THE APP.;
#X text 5 138 NOTE MESSAGES ARE ROUTED TO CHANNELS;
#X text 5 155 BASED ON THE DESIRED INSTRUMENT.;
#X obj -7 59 inlet;
#X text 376 20 Channel \, and all note information.;
#X text -7 24 Full paths of all soundfonts;
#X text -8 39 to be used in the app.;
#X obj -7 375 list trim;
#X obj -7 229 t l l;
#X obj 264 141 list;
#X msg 264 110 3 path;
#X text 256 88 Test \, debug.;
#X obj -7 420 s \$0-chanIn;
#X obj 20 297 s \$0-chanIn;
#X text 41 237 Create channel.;
#X text 2 327 Load soundfont.;
#X obj -7 347 list append 65 0 600 1000 0.1 3000 1;
#X msg 20 260 init \$1 stereo instrument_v04;
#X connect 0 0 11 0;
#X connect 1 0 3 0;
#X connect 2 0 3 0;
#X connect 3 0 4 0;
#X connect 3 0 6 0;
#X connect 3 1 5 0;
#X connect 10 0 3 0;
#X connect 15 0 20 0;
#X connect 19 0 24 0;
#X connect 20 0 28 0;
#X connect 20 1 29 0;
#X connect 21 0 20 0;
#X connect 22 0 21 0;
#X connect 28 0 19 0;
#X connect 29 0 25 0;
