#N canvas 16 118 591 432 10;
#X obj 56 26 inlet;
#X msg 45 267 reset;
#X msg 45 291 view;
#X text 98 25 Channel \, MIDI-num \, velocity;
#X obj 93 313 channels~;
#X obj 93 390 outlet~;
#X obj 144 390 outlet~;
#X obj 160 352 view~;
#X text 30 43 Each channel is a different instrument.;
#X text 309 140 OPEN A BUNCH OF CHANNELS TO START.;
#X text 308 157 THEN LEAVE THEM OPEN THE WHOLE TIME.;
#X obj 290 27 loadbang;
#X obj 93 267 r \$0-chanIn;
#X obj 56 174 s \$0-chanIn;
#X msg -29 88 1 1 65 1 600 1000 0.1 3000 0;
#X obj 290 228 s \$0-chanIn;
#X msg 290 197 init 1 stereo instrument_v03;
#X connect 0 0 13 0;
#X connect 1 0 4 0;
#X connect 2 0 4 0;
#X connect 4 0 5 0;
#X connect 4 0 7 0;
#X connect 4 1 6 0;
#X connect 11 0 16 0;
#X connect 12 0 4 0;
#X connect 14 0 13 0;
#X connect 16 0 15 0;
