#N canvas 1 73 1351 685 10;
#X obj -2984 -89 inlet;
#X obj -2861 -89 inlet;
#X text -2869 -127 Volume;
#X obj -2709 1119 outlet~;
#X text -2711 1141 Audio output directly to dac~ object.;
#X obj -2710 311 dictionary-standalone;
#X text -2686 196 Load in list of available progressions.;
#X msg -2683 217 set C-Blues-Slow ./12BarBlues_C_Slow.wav;
#X msg -2683 243 set C-Blues-Medium ./12BarBlues_C_Medium.wav;
#X msg -2683 269 set C-Blues-Fast ./12BarBlues_C_Fast.wav;
#X msg -2710 161 get \$1;
#X obj -2806 24 loadbang;
#N canvas 0 50 450 250 (subpatch) 0;
#X array sample 2.11684e+06 float 2;
#X coords 0 1 2.11684e+06 -1 216 130 1;
#X restore -2350 391 graph;
#X obj -2710 365 soundfiler;
#X floatatom -2637 450 12 0 0 0 numSamples - -, f 12;
#X obj -2637 498 s \$0-sampleSize;
#X floatatom -2942 542 12 0 0 0 Original_Sample_Rate_(Ts) - -, f 12
;
#X obj -2710 621 phasor~;
#X obj -2710 651 *~;
#X obj -2656 621 r \$0-sampleSize;
#X obj -2350 298 tgl 15 0 empty empty Progress_Bar_Activate 17 7 0
10 -262144 -1 -1 1 1;
#X obj -2600 645 metro 50;
#X obj -2600 667 snapshot~;
#X floatatom -2600 689 12 0 0 0 - - -, f 12;
#X obj -2600 734 /;
#X floatatom -2600 756 5 0 0 0 - - -, f 5;
#X obj -2585 710 r \$0-sampleSize;
#X msg -2350 145 \; pd dsp \$1;
#X obj -2350 124 tgl 15 0 empty empty Turn_Audio_On 17 7 0 10 -262144
-1 -1 1 1;
#X obj -2347 336 hsl 200 15 0 1 0 0 empty empty Progress_Bar -2 -8
0 10 -262144 -1 -1 0 1;
#X obj -2347 273 hsl 200 15 -20000 20000 0 0 empty empty Control_Playback_Speed
-2 -8 0 10 -262144 -1 -1 9950 1;
#X floatatom -2671 550 12 0 0 0 - - -, f 12;
#X obj -2350 236 bng 15 250 50 0 empty empty Reset_Playback_Speed 17
7 0 10 -262144 -1 -1;
#X obj -2637 391 bng 15 250 50 0 empty empty empty 17 7 0 10 -262144
-1 -1;
#X text -2375 103 CONTROLS:;
#X obj -2710 676 tabread4~ sample;
#X msg -2637 411 \; sample normalize 1;
#X msg -2710 339 read -resize \$1 sample;
#X obj -2709 996 *~;
#X msg -2671 587 0;
#X obj -2350 182 bng 15 250 50 0 empty empty Play 17 7 0 10 -262144
-1 -1;
#X obj -2350 200 bng 15 250 50 0 empty empty Pause 17 7 0 10 -262144
-1 -1;
#X obj -2350 218 bng 15 250 50 0 empty empty Stop 17 7 0 10 -262144
-1 -1;
#X msg -2710 587 0;
#X msg -2392 122 1;
#X obj -2789 133 t b b b b b;
#X obj -2475 585 spigot;
#X obj -2442 562 tgl 15 0 empty empty Playing? 17 7 0 10 -262144 -1
-1 0 1;
#X msg -2525 504 1;
#X msg -2481 504 0;
#X obj -2525 527 t b 1;
#X obj -2481 527 t b b 0;
#X msg -2425 504 0;
#X text -2528 483 Play.;
#X text -2427 483 Pause.;
#X obj -2425 527 t b 0;
#X text -2484 483 Stop.;
#X floatatom -2561 137 5 0 1 0 - - -, f 5;
#X obj -2709 968 pitchshifter~;
#X msg -2634 940 transpose \$1;
#X floatatom -2634 916 5 0 0 0 - - -, f 5;
#X text -2793 969 Contributed.;
#X obj -2710 521 expr $f1 / $f2;
#X obj -2749 -69 inlet;
#X floatatom -2710 420 10 0 0 0 - - -, f 10;
#X obj -2710 399 bng 15 250 50 0 empty empty empty 17 7 0 10 -262144
-1 -1;
#X text -3002 397 Default 44100 Hz sampling rate.;
#X msg -2806 397 44100, f 8;
#X text -3012 578 Calculate the tempo change;
#X text -3006 596 resulting from the change;
#X text -2988 614 in sampling frequency.;
#X text -2846 420 Starting Sample Rate.;
#X obj -2845 638 expr $f1 * $f2;
#X text -2811 549 Ts after tempo change.;
#X obj -2940 638 expr $f1 * $f2;
#X obj -2940 683 expr $f1 / $f2;
#X floatatom -2930 709 12 0 0 0 - - -, f 12;
#X text -3087 708 Ratio new Ts to old Ts.;
#X obj -3002 311 dictionary-standalone;
#X msg -2975 217 set C-Blues-Slow 60;
#X msg -2975 243 set C-Blues-Medium 120;
#X msg -2975 269 set C-Blues-Fast 180;
#X text -2978 196 Load in tempos of available progressions.;
#X msg -3002 341 \$1;
#X floatatom -3002 369 5 0 0 0 - - -, f 5;
#X text -2967 369 Current BPM.;
#X floatatom -2930 663 10 0 0 0 - - -, f 10;
#X floatatom -2835 663 10 0 0 0 - - -, f 10;
#X floatatom -2940 756 10 0 0 0 - - -, f 10;
#X obj -2940 730 expr $f1 * $f2;
#X text -3045 755 New tempo (BPM).;
#X floatatom -2710 500 10 0 0 0 - - -, f 10;
#X text -2816 498 New Sample Rate.;
#X obj -2710 474 +;
#X msg -2392 271 0;
#X obj -2942 516 expr $f1 / $f2;
#X text -3078 837 Proportionality constant (empirical).;
#X text -3063 779 Tempo Change (BPM).;
#X obj -2940 779 expr ($f1 - $f2);
#X floatatom -2940 804 5 0 0 0 - - -, f 5;
#X obj -2940 863 expr (-1 * $f1 * $f2);
#X msg -2817 834 0.238;
#X msg -2769 834 0.255;
#X text -3003 -128 Progression;
#X text -3034 -110 (ex. "C-Blues-Slow");
#X text -2890 -110 (range [0 \, 1]);
#X text -2632 -123 Play;
#X text -2666 -107 ("bang" message);
#X obj -2638 -87 inlet;
#X text -2766 -126 Sample Rate;
#X text -2779 -109 (audio sample);
#X text -2555 -105 ("bang" message);
#X obj -2527 -85 inlet;
#X text -2521 -121 Pause;
#X text -2443 -104 ("bang" message);
#X obj -2415 -84 inlet;
#X text -2409 -120 Stop;
#X text -2315 -103 ("bang" message);
#X obj -2287 -83 inlet;
#X text -2329 -121 Reset Playback Speed;
#X obj -2388 1113 outlet;
#X text -2424 1137 Current Tempo (BPM).;
#X obj -2125 -15 inlet;
#X text -2139 -122 Tempo;
#X text -2185 -104 (range [-20000 \, 20000]);
#X text -2195 -86 The units for this are Hz.;
#X text -2211 -71 This is the amount by which the;
#X text -2252 -55 playback sampling rate is increased/decreased;
#X text -2271 -38 relative to the original sampling rate of the audio.
;
#X text -2794 -90 (default = 44100 Hz);
#X msg -3002 162 get \$1;
#X connect 0 0 10 0;
#X connect 0 0 130 0;
#X connect 1 0 57 0;
#X connect 5 0 37 0;
#X connect 7 0 5 0;
#X connect 8 0 5 0;
#X connect 9 0 5 0;
#X connect 10 0 5 0;
#X connect 11 0 44 0;
#X connect 11 0 45 0;
#X connect 11 0 67 0;
#X connect 11 0 101 0;
#X connect 13 0 14 0;
#X connect 13 0 33 0;
#X connect 13 0 65 0;
#X connect 14 0 15 0;
#X connect 14 0 62 1;
#X connect 14 0 72 1;
#X connect 14 0 74 1;
#X connect 14 0 95 1;
#X connect 16 0 72 0;
#X connect 17 0 18 0;
#X connect 18 0 22 0;
#X connect 18 0 35 0;
#X connect 19 0 18 1;
#X connect 20 0 21 0;
#X connect 21 0 22 0;
#X connect 22 0 23 0;
#X connect 23 0 24 0;
#X connect 24 0 25 0;
#X connect 25 0 29 0;
#X connect 26 0 24 1;
#X connect 28 0 27 0;
#X connect 30 0 93 0;
#X connect 31 0 46 0;
#X connect 31 0 74 0;
#X connect 32 0 94 0;
#X connect 33 0 36 0;
#X connect 35 0 58 0;
#X connect 37 0 13 0;
#X connect 38 0 3 0;
#X connect 39 0 17 1;
#X connect 40 0 48 0;
#X connect 41 0 52 0;
#X connect 42 0 49 0;
#X connect 43 0 17 0;
#X connect 44 0 28 0;
#X connect 44 0 20 0;
#X connect 45 0 42 0;
#X connect 45 1 32 0;
#X connect 45 2 9 0;
#X connect 45 2 81 0;
#X connect 45 3 8 0;
#X connect 45 3 80 0;
#X connect 45 4 7 0;
#X connect 45 4 79 0;
#X connect 46 0 17 0;
#X connect 47 0 46 1;
#X connect 48 0 50 0;
#X connect 49 0 51 0;
#X connect 50 0 31 0;
#X connect 50 1 47 0;
#X connect 51 0 39 0;
#X connect 51 1 43 0;
#X connect 51 2 47 0;
#X connect 52 0 55 0;
#X connect 55 0 43 0;
#X connect 55 1 47 0;
#X connect 57 0 38 1;
#X connect 58 0 38 0;
#X connect 59 0 58 1;
#X connect 60 0 59 0;
#X connect 62 0 43 0;
#X connect 62 0 31 0;
#X connect 63 0 64 0;
#X connect 64 0 95 0;
#X connect 64 0 93 1;
#X connect 65 0 64 0;
#X connect 65 0 32 0;
#X connect 67 0 64 0;
#X connect 72 0 75 1;
#X connect 72 0 87 0;
#X connect 74 0 75 0;
#X connect 74 0 86 0;
#X connect 75 0 76 0;
#X connect 75 0 89 0;
#X connect 78 0 83 0;
#X connect 79 0 78 0;
#X connect 80 0 78 0;
#X connect 81 0 78 0;
#X connect 83 0 84 0;
#X connect 84 0 89 1;
#X connect 84 0 98 1;
#X connect 88 0 98 0;
#X connect 88 0 120 0;
#X connect 89 0 88 0;
#X connect 91 0 62 0;
#X connect 93 0 91 0;
#X connect 94 0 30 0;
#X connect 95 0 16 0;
#X connect 98 0 99 0;
#X connect 99 0 100 0;
#X connect 100 0 60 0;
#X connect 101 0 100 1;
#X connect 102 0 100 1;
#X connect 108 0 40 0;
#X connect 112 0 41 0;
#X connect 115 0 42 0;
#X connect 118 0 32 0;
#X connect 122 0 30 0;
#X connect 130 0 78 0;
