#N canvas 3 60 680 657 10;
#X obj 76 38 inlet;
#X text 128 665 Audio Signal to be sent directly to a dac~.;
#X obj 76 181 mtof;
#X obj 213 214 bng 15 250 50 0 empty empty empty 17 7 0 10 -262144
-1 -1;
#X msg 213 266 0;
#X obj 240 214 bng 15 250 50 0 empty empty empty 17 7 0 10 -262144
-1 -1;
#X floatatom 76 152 5 0 0 0 - - -, f 5;
#X obj 75 271 tabread4~ waveform;
#X obj 76 211 phasor~;
#X obj 245 42 inlet;
#X text 201 18 Volume (range [0 \, 1]);
#X obj 74 312 *~ 1;
#X floatatom 213 298 5 0 0 0 - - -, f 5;
#X obj 73 697 outlet~;
#X text 40 18 MIDI Message (list);
#X floatatom 213 152 5 0 0 0 - - -, f 5;
#X obj 76 122 unpack f f;
#X obj 76 241 *~ 2051;
#X msg 244 266 1;
#X obj 213 180 sel 0;
#X obj 74 339 *~ 1;
#X obj 279 266 s resetPhase;
#X obj 115 181 r resetPhase;
#X msg 279 240 0;
#X obj 73 585 *~ 0.1;
#X obj 213 326 sel 0;
#X obj 153 444 iterator;
#X floatatom 153 473 5 0 0 0 - - -, f 5;
#X obj 240 354 bng 15 250 50 0 empty empty empty 17 7 0 10 -262144
-1 -1;
#X obj 213 354 bng 15 250 50 0 empty empty empty 17 7 0 10 -262144
-1 -1;
#X obj 153 497 swap 1;
#X obj 153 525 /;
#X obj 165 383 s increment;
#X obj 240 383 s decrement;
#X obj 198 416 r increment;
#X obj 118 416 r decrement;
#X obj 217 446 bng 15 250 50 0 empty empty empty 17 7 0 10 -262144
-1 -1;
#X obj 118 446 bng 15 250 50 0 empty empty empty 17 7 0 10 -262144
-1 -1;
#X floatatom 153 552 5 0 0 0 - - -, f 5;
#X connect 0 0 16 0;
#X connect 2 0 8 0;
#X connect 3 0 4 0;
#X connect 4 0 12 0;
#X connect 5 0 18 0;
#X connect 5 0 23 0;
#X connect 6 0 2 0;
#X connect 7 0 11 0;
#X connect 8 0 17 0;
#X connect 9 0 20 1;
#X connect 11 0 20 0;
#X connect 12 0 11 1;
#X connect 12 0 25 0;
#X connect 15 0 19 0;
#X connect 16 0 6 0;
#X connect 16 1 15 0;
#X connect 17 0 7 0;
#X connect 18 0 12 0;
#X connect 19 0 3 0;
#X connect 19 1 5 0;
#X connect 20 0 24 0;
#X connect 22 0 8 1;
#X connect 23 0 21 0;
#X connect 24 0 13 0;
#X connect 25 0 29 0;
#X connect 25 1 28 0;
#X connect 26 0 27 0;
#X connect 27 0 30 0;
#X connect 28 0 33 0;
#X connect 29 0 32 0;
#X connect 30 0 31 0;
#X connect 30 1 31 1;
#X connect 31 0 38 0;
#X connect 34 0 26 5;
#X connect 34 0 36 0;
#X connect 35 0 26 0;
#X connect 35 0 37 0;
#X connect 38 0 24 1;
