#N canvas 1 74 680 657 10;
#X obj 74 38 inlet;
#X text 128 665 Audio Signal to be sent directly to a dac~.;
#X obj 74 181 mtof;
#X obj 263 214 bng 15 250 50 0 empty empty empty 17 7 0 10 -262144
-1 -1;
#X msg 263 266 0;
#X obj 290 214 bng 15 250 50 0 empty empty empty 17 7 0 10 -262144
-1 -1;
#X floatatom 74 152 5 0 0 0 - - -, f 5;
#X obj 74 211 phasor~;
#X obj 245 42 inlet;
#X text 201 18 Volume (range [0 \, 1]);
#X obj 74 312 *~ 1;
#X floatatom 263 298 5 0 0 0 - - -, f 5;
#X obj 73 697 outlet~;
#X text 38 18 MIDI Message (list);
#X floatatom 263 152 5 0 0 0 - - -, f 5;
#X obj 74 122 unpack f f;
#X obj 74 241 *~ 2051;
#X msg 294 266 1;
#X obj 263 180 sel 0;
#X obj 74 349 *~ 1;
#X obj 329 266 s resetPhase;
#X obj 113 181 r resetPhase;
#X msg 329 240 0;
#X obj 73 585 *~ 0.1;
#X obj 263 326 sel 0;
#X obj 203 444 iterator;
#X floatatom 203 473 5 0 0 0 - - -, f 5;
#X obj 290 354 bng 15 250 50 0 empty empty empty 17 7 0 10 -262144
-1 -1;
#X obj 263 354 bng 15 250 50 0 empty empty empty 17 7 0 10 -262144
-1 -1;
#X obj 203 497 swap 1;
#X obj 203 525 /;
#X obj 215 383 s increment;
#X obj 290 383 s decrement;
#X obj 248 416 r increment;
#X obj 168 416 r decrement;
#X obj 267 446 bng 15 250 50 0 empty empty empty 17 7 0 10 -262144
-1 -1;
#X obj 168 446 bng 15 250 50 0 empty empty empty 17 7 0 10 -262144
-1 -1;
#X floatatom 203 552 5 0 0 0 - - -, f 5;
#X text 394 55 WAVEFORMS CAN BE FOUND IN;
#X text 381 73 FILE "SUBTACTOR_WAVEFORMS.PD.";
#X text 374 91 SIMPLY USE THE NAME OF THE ARRAY;
#X text 375 109 CONTAINING THE DESIRED WAVEFORM;
#X text 369 125 NEXT TO "TABREAD4~" IN THIS PATCH.;
#X text 374 142 THE *~ FOR THE SIZE OF THE ARRAY;
#X text 375 160 (2051) MIGHT HAVE TO BE CHANGED;
#X text 352 178 TO MATCH THE SIZE OF THE WAVEFORM USED.;
#X obj 74 271 tabread4~ 17_table;
#X connect 0 0 15 0;
#X connect 2 0 7 0;
#X connect 3 0 4 0;
#X connect 4 0 11 0;
#X connect 5 0 17 0;
#X connect 5 0 22 0;
#X connect 6 0 2 0;
#X connect 7 0 16 0;
#X connect 8 0 19 1;
#X connect 10 0 19 0;
#X connect 11 0 10 1;
#X connect 11 0 24 0;
#X connect 14 0 18 0;
#X connect 15 0 6 0;
#X connect 15 1 14 0;
#X connect 16 0 46 0;
#X connect 17 0 11 0;
#X connect 18 0 3 0;
#X connect 18 1 5 0;
#X connect 19 0 23 0;
#X connect 21 0 7 1;
#X connect 22 0 20 0;
#X connect 23 0 12 0;
#X connect 24 0 28 0;
#X connect 24 1 27 0;
#X connect 25 0 26 0;
#X connect 26 0 29 0;
#X connect 27 0 32 0;
#X connect 28 0 31 0;
#X connect 29 0 30 0;
#X connect 29 1 30 1;
#X connect 30 0 37 0;
#X connect 33 0 25 5;
#X connect 33 0 35 0;
#X connect 34 0 25 0;
#X connect 34 0 36 0;
#X connect 37 0 23 1;
#X connect 46 0 10 0;
