#N canvas 1 67 680 657 10;
#X obj -7 47 inlet;
#X obj 46 48 inlet;
#X text -13 22 Volume;
#X obj 253 48 inlet;
#X obj 297 48 inlet;
#X text 217 26 Progression;
#X obj 37 663 dac~;
#X obj 548 24 loadbang;
#X msg 548 51 \; pd dsp 1 \;;
#X text 71 664 Play sound., f 19;
#X text 513 94 Enable DSP by default.;
#X text 298 27 Play;
#X obj 338 48 inlet;
#X text 337 27 Pause;
#X obj 379 48 inlet;
#X text 381 27 Stop;
#X obj 437 48 inlet;
#X text 419 27 Reset Tempo;
#X obj 286 342 outlet;
#X text 248 363 Current Tempo (BPM);
#X text 33 23 Tempo In;
#X obj 268 79 bng 15 250 50 0 empty empty empty 17 7 0 10 -262144 -1
-1;
#X obj 46 74 bng 15 250 50 0 empty empty empty 17 7 0 10 -262144 -1
-1;
#X obj 309 78 bng 15 250 50 0 empty empty empty 17 7 0 10 -262144 -1
-1;
#X obj 348 77 bng 15 250 50 0 empty empty empty 17 7 0 10 -262144 -1
-1;
#X obj 386 77 bng 15 250 50 0 empty empty empty 17 7 0 10 -262144 -1
-1;
#X obj 437 77 bng 15 250 50 0 empty empty empty 17 7 0 10 -262144 -1
-1;
#X obj 28 118 bng 15 250 50 0 empty empty empty 17 7 0 10 -262144 -1
-1;
#X obj 163 228 backTrack_v03, f 21;
#X obj 180 203 * 2;
#X obj 132 47 inlet;
#X text 93 26 MIDI Message (list);
#X obj 37 228 midiMessageHandler;
#X obj 147 83 bng 15 250 50 0 empty empty empty 17 7 0 10 -262144 -1
-1;
#X floatatom -7 92 5 0 0 0 - - -, f 5;
#X obj 162 408 snapshot~;
#X obj 177 378 metro 50;
#X floatatom 162 444 5 0 0 0 - - -, f 5;
#X obj 177 352 tgl 15 0 empty empty empty 17 7 0 10 -262144 -1 -1 1
1;
#X obj 37 634 normalize~;
#X obj 497 48 inlet;
#X text 492 27 Tremolo;
#X obj 497 77 bng 15 250 50 0 empty empty empty 17 7 0 10 -262144 -1
-1;
#X obj 467 298 snapshot~;
#X floatatom 467 334 5 0 0 0 - - -, f 5;
#X obj 467 242 tgl 15 0 empty empty empty 17 7 0 10 -262144 -1 -1 1
1;
#X obj 414 317 *~ 0.5;
#X obj 414 344 -~ 0.5;
#X obj 38 525 +~;
#X msg 467 211 1;
#X obj 514 332 sel 0;
#X obj 415 446 *~;
#X msg 514 359 0;
#X msg 545 359 1;
#X floatatom 514 391 5 0 0 0 - - -, f 5;
#X text 298 401 Amount of Tremolo.;
#X obj 467 268 metro 50;
#X obj 414 400 *~ 0.5;
#X obj 414 268 osc~ 5;
#X connect 0 0 27 0;
#X connect 0 0 29 0;
#X connect 0 0 34 0;
#X connect 0 0 32 1;
#X connect 1 0 22 0;
#X connect 1 0 28 7;
#X connect 3 0 21 0;
#X connect 3 0 28 0;
#X connect 4 0 23 0;
#X connect 4 0 28 3;
#X connect 7 0 8 0;
#X connect 7 0 38 0;
#X connect 7 0 49 0;
#X connect 12 0 24 0;
#X connect 12 0 28 4;
#X connect 14 0 25 0;
#X connect 14 0 28 5;
#X connect 16 0 26 0;
#X connect 16 0 28 6;
#X connect 28 0 35 0;
#X connect 28 0 39 0;
#X connect 28 1 18 0;
#X connect 29 0 28 1;
#X connect 30 0 32 0;
#X connect 30 0 33 0;
#X connect 32 0 35 0;
#X connect 32 0 48 0;
#X connect 35 0 37 0;
#X connect 36 0 35 0;
#X connect 38 0 36 0;
#X connect 39 0 6 0;
#X connect 39 0 6 1;
#X connect 40 0 42 0;
#X connect 40 0 50 0;
#X connect 43 0 44 0;
#X connect 45 0 56 0;
#X connect 46 0 47 0;
#X connect 47 0 57 0;
#X connect 48 0 39 0;
#X connect 49 0 45 0;
#X connect 50 0 52 0;
#X connect 50 1 53 0;
#X connect 51 0 48 1;
#X connect 52 0 54 0;
#X connect 53 0 54 0;
#X connect 54 0 51 1;
#X connect 56 0 43 0;
#X connect 57 0 51 0;
#X connect 58 0 43 0;
#X connect 58 0 46 0;
