#N canvas 2 59 1364 685 10;
#X obj -41 47 inlet;
#X obj 8 48 inlet;
#X obj 81 48 inlet;
#X obj 171 48 inlet;
#X text -47 22 Volume;
#X text 8 23 Tempo;
#X text 123 26 MIDI Velocity;
#X obj 253 48 inlet;
#X obj 335 48 inlet;
#X text 217 26 Progression;
#X text 299 26 Play Status;
#X text 51 25 MIDI Pitch;
#X obj 118 279 dac~;
#X obj 457 29 loadbang;
#X msg 457 56 \; pd dsp 1 \;;
#X text 37 280 Play sound., f 19;
#X text 424 99 Enable DSP by default.;
#X obj 274 192 * 0.75;
#X obj 53 229 generateSound;
#X obj 205 226 backTrack;
#X connect 0 0 17 0;
#X connect 0 0 18 2;
#X connect 2 0 18 0;
#X connect 3 0 18 1;
#X connect 7 0 19 0;
#X connect 13 0 14 0;
#X connect 17 0 19 1;
#X connect 18 0 12 0;
#X connect 18 0 12 1;
#X connect 19 0 12 0;
#X connect 19 0 12 1;
