#N canvas 3 60 680 657 10;
#X obj 34 131 bng 15 250 50 0 empty empty empty 17 7 0 10 -262144 -1
-1;
#X obj 111 130 bng 15 250 50 0 empty empty empty 17 7 0 10 -262144
-1 -1;
#X obj 328 133 bng 15 250 50 0 empty empty empty 17 7 0 10 -262144
-1 -1;
#X obj 418 130 bng 15 250 50 0 empty empty empty 17 7 0 10 -262144
-1 -1;
#X obj 483 127 bng 15 250 50 0 empty empty empty 17 7 0 10 -262144
-1 -1;
#X obj 553 129 bng 15 250 50 0 empty empty empty 17 7 0 10 -262144
-1 -1;
#X obj 34 101 r volume;
#X obj 111 101 r tempo_in;
#X obj 313 101 r progression;
#X obj 418 101 r play;
#X obj 483 101 r pause;
#X obj 553 101 r stop;
#X obj 301 305 s tempo_out;
#X obj 301 222 mainMessageHandler;
#X obj 130 16 loadbang;
#X msg 130 129 0;
#X msg 53 129 1;
#X obj 206 101 r MIDI_message;
#X obj 206 132 bng 15 250 50 0 empty empty empty 17 7 0 10 -262144
-1 -1;
#X floatatom 52 164 5 0 0 0 - - -, f 5;
#X obj 602 101 r tremolo;
#X obj 602 129 bng 15 250 50 0 empty empty empty 17 7 0 10 -262144
-1 -1;
#X connect 6 0 0 0;
#X connect 6 0 19 0;
#X connect 7 0 1 0;
#X connect 7 0 13 1;
#X connect 8 0 2 0;
#X connect 8 0 13 3;
#X connect 9 0 3 0;
#X connect 9 0 13 4;
#X connect 10 0 4 0;
#X connect 10 0 13 5;
#X connect 11 0 5 0;
#X connect 11 0 13 6;
#X connect 13 0 12 0;
#X connect 14 0 15 0;
#X connect 14 0 16 0;
#X connect 15 0 13 1;
#X connect 16 0 13 0;
#X connect 17 0 13 2;
#X connect 17 0 18 0;
#X connect 19 0 13 0;
#X connect 20 0 21 0;
#X connect 20 0 13 8;
