#N canvas 3 60 680 657 10;
#X obj 25 37 hsl 128 15 0 1 0 0 empty empty Volume -2 -8 0 10 -262144
-1 -1 12700 1;
#X obj 181 37 hsl 128 15 50 300 0 0 empty empty Tempo -2 -8 0 10 -262144
-1 -1 7000 1;
#X floatatom 22 63 5 0 0 0 - - -, f 5;
#X floatatom 178 63 5 0 0 0 - - -, f 5;
#X obj 22 89 s volume;
#X obj 178 89 s tempo;
#X obj 336 37 hsl 128 15 0 127 0 0 empty empty MIDI_Pitch -2 -8 0 10
-262144 -1 -1 7000 1;
#X floatatom 333 63 5 0 0 0 - - -, f 5;
#X obj 491 37 hsl 128 15 0 10 0 0 empty empty MIDI_Velocity -2 -8 0
10 -262144 -1 -1 0 1;
#X floatatom 488 63 5 0 0 0 - - -, f 5;
#X obj 333 89 s MIDI_pitch;
#X obj 488 89 s MIDI_vel;
#X connect 0 0 2 0;
#X connect 1 0 3 0;
#X connect 2 0 4 0;
#X connect 3 0 5 0;
#X connect 6 0 7 0;
#X connect 7 0 10 0;
#X connect 8 0 9 0;
#X connect 9 0 11 0;
