#N canvas 453 72 717 785 10;
#X obj 43 41 inlet;
#X obj 279 43 inlet;
#X text 217 19 Volume (range [0 \, 1]);
#X text 13 18 MIDI Message (list);
#X obj 43 210 route 1 2 3 4 5 6 7 8 9 10;
#X text 162 549 Sound output.;
#X obj 179 528 outlet~;
#X floatatom 310 85 5 0 0 0 - - -, f 5;
#X obj 43 180 pack f f f;
#X obj 43 449 generateSound_v01;
#X obj 180 242 generateSound_v01;
#X obj 165 265 generateSound_v01;
#X obj 150 288 generateSound_v01;
#X obj 134 311 generateSound_v01;
#X obj 119 334 generateSound_v01;
#X obj 104 357 generateSound_v01;
#X obj 88 380 generateSound_v01;
#X obj 73 403 generateSound_v01;
#X obj 58 426 generateSound_v01;
#X obj 43 150 poly 4 1;
#X connect 0 0 19 0;
#X connect 1 0 7 0;
#X connect 1 0 9 1;
#X connect 1 0 10 1;
#X connect 1 0 11 1;
#X connect 1 0 12 1;
#X connect 1 0 13 1;
#X connect 1 0 14 1;
#X connect 1 0 15 1;
#X connect 1 0 16 1;
#X connect 1 0 17 1;
#X connect 1 0 18 1;
#X connect 4 0 9 0;
#X connect 4 1 18 0;
#X connect 4 2 17 0;
#X connect 4 3 16 0;
#X connect 4 4 15 0;
#X connect 4 5 14 0;
#X connect 4 6 13 0;
#X connect 4 7 12 0;
#X connect 4 8 11 0;
#X connect 4 9 10 0;
#X connect 8 0 4 0;
#X connect 9 0 6 0;
#X connect 10 0 6 0;
#X connect 11 0 6 0;
#X connect 12 0 6 0;
#X connect 13 0 6 0;
#X connect 14 0 6 0;
#X connect 15 0 6 0;
#X connect 16 0 6 0;
#X connect 17 0 6 0;
#X connect 18 0 6 0;
#X connect 19 0 8 0;
#X connect 19 1 8 1;
#X connect 19 2 8 2;
