#N canvas 1 74 532 629 10;
#X obj 22 613 outlet~;
#X obj 32 57 inlet~;
#X obj 85 462 *~;
#X obj 208 399 line~;
#X obj 208 373 pack 0 200;
#X obj 22 247 exp;
#X obj 22 363 /;
#X obj 149 293 * 0.001;
#X obj 317 469 line~;
#X obj 317 444 pack 0 200;
#X obj 85 488 +~;
#X obj 22 514 cos~;
#X obj 22 541 *~;
#X obj 22 570 +~;
#X obj 109 421 wrap~;
#X obj 254 464 *~;
#X obj 254 497 +~;
#X obj 191 524 cos~;
#X obj 191 551 *~;
#X obj 149 320 t b f;
#X obj 109 394 +~ 0.5;
#X obj 22 462 -~ 0.5;
#X obj 22 488 *~ 0.5;
#X obj 191 463 -~ 0.5;
#X obj 191 496 *~ 0.5;
#X obj 22 300 - 1;
#X obj 22 221 * 0.05776;
#X obj 22 326 * -1;
#X text 57 356 tape head;
#X obj 22 420 phasor~;
#X obj 317 420 max 1.5;
#X obj 240 243 max 1;
#X text 58 369 rotation freq;
#X obj 85 514 vd~ \$0-del;
#X obj 254 526 vd~ \$0-del;
#X obj 32 99 delwrite~ \$0-del 5000;
#X obj 221 55 inlet;
#X obj 221 100 route transpose window delay;
#X text 203 224 window (msec);
#X text 336 382 delay (msec);
#X text 56 190 transposition (semitones);
#X msg 231 80 transpose 0 \, window 100 \, delay 0;
#X obj 270 55 loadbang;
#X text 108 614 adapted from pd/doc/3.audio.examples/G09.pitchshift.pd
;
#X text 19 -24 BORROWED FROM: http://forum.pdpatchrepo.info/topic/665/pitch-shift-for-realtime-audio
, f 71;
#X text 20 12 USERNAME: ClaudiusMaximus;
#X connect 1 0 35 0;
#X connect 2 0 10 0;
#X connect 3 0 2 1;
#X connect 3 0 15 1;
#X connect 4 0 3 0;
#X connect 5 0 25 0;
#X connect 6 0 29 0;
#X connect 7 0 19 0;
#X connect 8 0 10 1;
#X connect 8 0 16 1;
#X connect 9 0 8 0;
#X connect 10 0 33 0;
#X connect 11 0 12 0;
#X connect 12 0 13 0;
#X connect 13 0 0 0;
#X connect 14 0 15 0;
#X connect 14 0 23 0;
#X connect 15 0 16 0;
#X connect 16 0 34 0;
#X connect 17 0 18 0;
#X connect 18 0 13 1;
#X connect 19 0 6 0;
#X connect 19 1 6 1;
#X connect 20 0 14 0;
#X connect 21 0 22 0;
#X connect 22 0 11 0;
#X connect 23 0 24 0;
#X connect 24 0 17 0;
#X connect 25 0 27 0;
#X connect 26 0 5 0;
#X connect 27 0 6 0;
#X connect 29 0 2 0;
#X connect 29 0 21 0;
#X connect 29 0 20 0;
#X connect 30 0 9 0;
#X connect 31 0 7 0;
#X connect 31 0 4 0;
#X connect 33 0 12 1;
#X connect 34 0 18 1;
#X connect 36 0 37 0;
#X connect 37 0 26 0;
#X connect 37 1 31 0;
#X connect 37 2 30 0;
#X connect 41 0 37 0;
#X connect 42 0 41 0;
