#N canvas 723 148 450 300 10;
#N canvas 3 60 717 785 song_clock 1;
#X obj 141 434 metro;
#X floatatom 315 377 5 0 0 0 - - -, f 5;
#X text 353 378 Tempo in BPM.;
#X text 181 583 Current time (ms since t=0).;
#X msg 141 271 1;
#X msg 24 271 0;
#X obj 141 345 t b b b;
#X msg 164 375 60000;
#X obj 164 405 /;
#X obj 141 514 timer;
#X text 0 2 The purpose of this patch is to keep track of the time
scale of the playing environment. It has a metronome that keeps a steady
pulse \, and a timer that keeps track of the current time value as
the backing track is playing \, and as the user playes notes.;
#X obj 250 101 loadbang;
#X msg 315 347 60;
#X text 350 349 Default tempo in BPM.;
#X obj 158 309 bng 15 250 50 0 empty empty empty 17 7 0 10 -262144
-1 -1;
#X obj 84 462 timer;
#X msg 141 201 Metronome On;
#X msg 24 201 Metronome Off;
#X obj 141 243 bng 15 250 50 0 empty empty empty 17 7 0 10 -262144
-1 -1;
#X obj 24 244 bng 15 250 50 0 empty empty empty 17 7 0 10 -262144 -1
-1;
#X msg 31 101 Start!;
#X obj 134 167 bng 15 250 50 0 empty empty empty 17 7 0 10 -262144
-1 -1;
#X obj 24 166 bng 15 250 50 0 empty empty empty 17 7 0 10 -262144 -1
-1;
#X msg 93 101 Stop!;
#X obj 141 489 t b b;
#X obj -47 376 metro 1 60000 permin;
#X floatatom 141 551 5 0 0 0 - - -, f 5;
#X floatatom 141 582 5 0 0 0 - - -, f 5;
#X text 141 103 (t=0ms at start);
#X text 181 551 Metronome Ts in ms.;
#X obj 141 463 bng 15 250 50 0 empty empty empty 17 7 0 10 -262144
-1 -1;
#X obj 84 309 bng 15 250 50 0 empty empty empty 17 7 0 10 -262144 -1
-1;
#X msg -4 340 1;
#X msg -30 301 0;
#X connect 0 0 30 0;
#X connect 1 0 8 1;
#X connect 1 0 6 0;
#X connect 4 0 6 0;
#X connect 4 0 14 0;
#X connect 5 0 0 0;
#X connect 6 0 0 0;
#X connect 6 1 7 0;
#X connect 7 0 8 0;
#X connect 8 0 0 1;
#X connect 9 0 26 0;
#X connect 11 0 12 0;
#X connect 12 0 1 0;
#X connect 14 0 1 0;
#X connect 15 0 27 0;
#X connect 16 0 18 0;
#X connect 17 0 19 0;
#X connect 18 0 4 0;
#X connect 19 0 5 0;
#X connect 20 0 21 0;
#X connect 21 0 16 0;
#X connect 21 0 31 0;
#X connect 22 0 17 0;
#X connect 22 0 33 0;
#X connect 23 0 22 0;
#X connect 24 0 9 0;
#X connect 24 1 9 1;
#X connect 25 0 15 1;
#X connect 30 0 24 0;
#X connect 31 0 15 0;
#X connect 31 0 32 0;
#X connect 32 0 25 0;
#X connect 33 0 25 0;
#X restore 98 92 pd song_clock;
