#N canvas 2120 206 681 657 10;
#X obj 66 338 metro;
#X floatatom 247 281 5 0 0 0 - - -, f 5;
#X text 285 282 Tempo in BPM.;
#X text 302 379 Current time (ms since t=0).;
#X obj 66 366 bng 15 250 50 0 empty empty empty 17 7 0 10 -262144 -1
-1;
#X msg 60 175 1;
#X msg 24 175 0;
#X text 60 149 On;
#X text 24 149 Off;
#X obj 63 249 t b b b;
#X msg 77 279 60000;
#X obj 86 309 /;
#X obj 155 362 timer;
#X text -16 13 The purpose of this patch is to keep track of the time
scale of the playing environment. It has a metronome that keeps a steady
pulse \, and a timer that keeps track of the current time value as
the backing track is playing \, and as the user playes notes.;
#X obj 169 136 loadbang;
#X msg 247 251 60;
#X text 282 253 Default tempo in BPM.;
#X connect 0 0 4 0;
#X connect 1 0 11 1;
#X connect 5 0 9 0;
#X connect 6 0 0 0;
#X connect 9 0 0 0;
#X connect 9 1 10 0;
#X connect 9 2 1 0;
#X connect 10 0 11 0;
#X connect 11 0 0 1;
#X connect 14 0 15 0;
#X connect 15 0 1 0;
